<mxfile host="65bd71144e">
    <diagram id="rvDsMD9e9jWBFNg2mQZ5" name="Página-1">
        <mxGraphModel dx="752" dy="496" grid="1" gridSize="10" guides="1" tooltips="1" connect="1" arrows="1" fold="1" page="1" pageScale="1" pageWidth="827" pageHeight="1169" math="0" shadow="0">
            <root>
                <mxCell id="0"/>
                <mxCell id="1" parent="0"/>
                <mxCell id="2" value="R1: Rectángulo&lt;br&gt;-Color: Texto&lt;br&gt;-Longitud:&amp;nbsp;1 Número&lt;br&gt;-Largo:&amp;nbsp;1 Número&lt;br&gt;-Perímetro:&amp;nbsp;1 Número&lt;br&gt;-Área:&amp;nbsp;1 Número" style="rounded=0;whiteSpace=wrap;html=1;" vertex="1" parent="1">
                    <mxGeometry x="210" y="175" width="180" height="110" as="geometry"/>
                </mxCell>
                <mxCell id="3" value="C1: Cuadrado&lt;br&gt;-Color: 1 Texto&lt;br&gt;-Lado:&amp;nbsp;1 Número&lt;br&gt;-Perímetro:&amp;nbsp;1 Número&lt;br&gt;-Área:&amp;nbsp;1 Número" style="whiteSpace=wrap;html=1;aspect=fixed;" vertex="1" parent="1">
                    <mxGeometry x="440" y="175" width="110" height="110" as="geometry"/>
                </mxCell>
                <mxCell id="4" value="E1: Elipse&lt;br&gt;-Color: 1 Texto&lt;br&gt;-Eje Mayor:&amp;nbsp;1 Número&lt;br&gt;-Eje Menor:&amp;nbsp;1 Número&lt;br&gt;-Perímetro:&amp;nbsp;1 Número&lt;br&gt;-Área:&amp;nbsp;1 Número" style="ellipse;whiteSpace=wrap;html=1;" vertex="1" parent="1">
                    <mxGeometry x="570" y="170" width="160" height="100" as="geometry"/>
                </mxCell>
                <mxCell id="5" value="C1: Círculo&lt;br&gt;-Color: 1 Texto&lt;br&gt;-Diámetro: 1 Número&lt;br&gt;-Perímetro: 1 Número&lt;br&gt;-Área: 1 Número" style="ellipse;whiteSpace=wrap;html=1;aspect=fixed;" vertex="1" parent="1">
                    <mxGeometry x="40" y="160" width="140" height="140" as="geometry"/>
                </mxCell>
            </root>
        </mxGraphModel>
    </diagram>
</mxfile>